<svg width="16" height="16" viewBox="0 0 16 16" fill="none" xmlns="http://www.w3.org/2000/svg">
<path d="M8 1C4.1344 1 1 4.1344 1 8C1 11.8656 4.1344 15 8 15C11.8656 15 15 11.8656 15 8C15 4.1344 11.8656 1 8 1Z" stroke="#666666" stroke-width="1.51304" stroke-miterlimit="10"/>
<path d="M6.93359 6.93457H8.15099V11.3476" stroke="#666666" stroke-width="1.51304" stroke-linecap="round" stroke-linejoin="round"/>
<path d="M6.47852 11.5H9.82634" stroke="#666666" stroke-width="1.51304" stroke-miterlimit="10" stroke-linecap="round"/>
<path d="M7.9989 3.51074C7.80326 3.51074 7.61203 3.56875 7.44936 3.67744C7.2867 3.78613 7.15992 3.94061 7.08506 4.12135C7.01019 4.30209 6.99061 4.50097 7.02877 4.69284C7.06694 4.88471 7.16114 5.06096 7.29948 5.19929C7.43781 5.33763 7.61405 5.43183 7.80593 5.47C7.9978 5.50816 8.19668 5.48857 8.37742 5.41371C8.55816 5.33885 8.71264 5.21207 8.82133 5.0494C8.93002 4.88674 8.98803 4.6955 8.98803 4.49987C8.98803 4.23754 8.88381 3.98595 8.69832 3.80045C8.51282 3.61495 8.26123 3.51074 7.9989 3.51074Z" fill="#666666"/>
</svg>
