<svg width="1687" height="653" viewBox="0 0 1687 653" fill="none" xmlns="http://www.w3.org/2000/svg">
<path d="M495 566.5C485 566.5 476.833 561.667 470.5 552C464.5 542.667 462.167 531.5 463.5 518.5C465.167 502.5 469 483.667 475 462C481.333 440 489 417 498 393C507.333 368.667 517.167 345.167 527.5 322.5C523.167 328.5 517.833 335.833 511.5 344.5C505.5 352.833 498.667 362.5 491 373.5L482 386.5C474.333 397.5 467.333 407.333 461 416C454.667 424.667 449 432.333 444 439C443.333 439.667 441.833 441.5 439.5 444.5C437.5 447.167 434.667 450.833 431 455.5C427.333 460.167 423.333 465 419 470C415 474.667 410.833 479.333 406.5 484C386.5 506.333 373 517.5 366 517.5C356 517.833 348.5 513.333 343.5 504C338.5 494.667 336 481.833 336 465.5C336 458.833 336.5 451.5 337.5 443.5C340.167 418.167 347.167 385.333 358.5 345L370 304C371.667 298.333 372.833 293.167 373.5 288.5C374.167 283.833 374.667 279.5 375 275.5C375 271.167 376.333 268.167 379 266.5C382 264.5 385.667 263.5 390 263.5C394.667 263.5 398.833 264.5 402.5 266.5C406.5 268.5 408.333 270.667 408 273C407 279.333 405.667 285.833 404 292.5C402.333 299.167 400.333 306.167 398 313.5C397.333 316.167 396 319.667 394 324C392.333 328.333 390.167 333.333 387.5 339L381.5 352.5C374.167 368.833 368.333 384.167 364 398.5C359.667 412.833 356.667 427.5 355 442.5C354.667 443.833 354.5 445.667 354.5 448C354.5 450 354.5 452.333 354.5 455C354.5 465 356.167 472.167 359.5 476.5C363.167 480.5 368.833 482.667 376.5 483C379.833 483 384.167 481.167 389.5 477.5C395.167 473.833 401 469.333 407 464C413 458.667 418.667 453.167 424 447.5C429.667 441.5 434.167 436.333 437.5 432C457.5 406.667 475.833 382.167 492.5 358.5C509.5 334.5 523.833 312.167 535.5 291.5C547.5 270.833 555.833 252.833 560.5 237.5C562.167 232.5 566.167 230 572.5 230C577.5 230 582 231.667 586 235C590 238.333 591 242 589 246L580.5 262.5C571.5 280.167 562.833 297 554.5 313C546.5 328.667 539.333 343.833 533 358.5L532.5 358C518.833 389.333 508 418.167 500 444.5C492.333 470.5 487.333 494.167 485 515.5C484.333 525.167 485.5 533.667 488.5 541C491.833 548.333 496.667 552 503 552C511.333 552 520.167 546 529.5 534C532.833 529.667 535.833 528 538.5 529C539.5 530 540 530.833 540 531.5C540 533.167 539.333 534.667 538 536C531 546.333 523.667 554 516 559C508.667 564 501.667 566.5 495 566.5ZM83.5 594.5C61.5 594.5 44 587.333 31 573C18 559 11.5 539.333 11.5 514C11.5 479 24.1667 438.667 49.5 393C66.8333 361.667 86 338.5 107 323.5C128.333 308.167 148.667 300.5 168 300.5C185 300.5 199 305.667 210 316C221.333 326.333 227 339.5 227 355.5C227 367.5 223.5 380 216.5 393C209.833 406 199.5 419 185.5 432C183.833 433.667 182.167 434.5 180.5 434.5C178.833 434.5 178 433.5 178 431.5C178 429.5 179.333 427.167 182 424.5C192 414.167 199.5 403.833 204.5 393.5C209.5 382.833 212 372.833 212 363.5C212 350.167 207.667 339.333 199 331C190.333 322.333 179.333 318 166 318C150 318 133.167 324.667 115.5 338C98.1667 351 81.8333 371.333 66.5 399C41.8333 444.667 29.5 483.5 29.5 515.5C29.5 535.833 34.3333 551.667 44 563C54 574.333 67.6667 580 85 580C100.667 580 118.167 575.333 137.5 566C156.833 556.667 177.333 542.5 199 523.5C229 496.833 256.5 465.333 281.5 429C294.167 410.667 303.833 396.667 310.5 387C317.167 377.333 320.833 372 321.5 371C326.833 363.667 332.5 355.833 338.5 347.5C344.5 338.833 350.833 329.5 357.5 319.5C358.5 317.833 359.5 318 360.5 320C362.167 322.667 362.333 324.833 361 326.5C353.333 337.833 344.667 351.5 335 367.5C325.667 383.167 315 400.833 303 420.5L294 435H294.5C267.833 476.333 238 510.833 205 538.5C183 557.167 161.5 571.167 140.5 580.5C119.833 589.833 100.833 594.5 83.5 594.5ZM625.598 549.5C624.931 549.5 624.264 549.333 623.598 549C622.931 549 622.264 548.833 621.598 548.5C616.931 546.167 613.931 542.833 612.598 538.5C611.264 534.167 610.931 528.667 611.598 522C612.264 519.333 612.931 514.667 613.598 508C614.598 501.333 615.764 496 617.098 492L591.598 516.5L577.598 530C567.931 539.667 559.931 544.5 553.598 544.5C550.931 544.5 548.764 543.5 547.098 541.5C544.098 537.833 542.598 533.333 542.598 528C542.598 521 544.431 513.5 548.098 505.5C551.764 497.5 556.098 489.833 561.098 482.5C566.098 474.833 570.598 468.5 574.598 463.5C584.598 451.167 594.264 441.5 603.598 434.5C613.264 427.5 623.264 424 633.598 424C639.264 424 644.764 425 650.098 427C655.764 429 660.931 432.333 665.598 437L666.098 437.5C666.098 438.5 665.264 439.5 663.598 440.5C662.931 441.167 662.264 441.667 661.598 442C661.264 442.333 660.931 442.667 660.598 443C656.598 447 652.098 453.667 647.098 463C642.098 472.333 637.764 482.167 634.098 492.5C630.431 502.5 628.598 511.167 628.598 518.5C628.598 525.167 630.264 529.667 633.598 532C635.264 533 637.098 533.5 639.098 533.5C643.431 533.5 649.431 530.833 657.098 525.5C657.431 525.167 658.098 524.667 659.098 524C660.431 523 662.264 521.667 664.598 520C667.264 518 669.431 517 671.098 517C672.764 517 673.598 517.667 673.598 519C673.598 521 672.264 523.333 669.598 526C667.598 527.667 665.264 529.5 662.598 531.5C660.264 533.5 657.431 535.5 654.098 537.5C649.098 541.167 643.931 544 638.598 546C633.264 548.333 628.931 549.5 625.598 549.5ZM569.098 517.5C576.098 517.5 589.098 507.167 608.098 486.5C613.098 480.833 617.598 475.5 621.598 470.5C625.598 465.167 629.264 460 632.598 455C638.598 445.333 640.598 438.667 638.598 435C637.598 433 635.598 432 632.598 432C628.931 432 623.931 434 617.598 438C611.264 441.667 604.764 446.5 598.098 452.5C591.764 458.5 585.931 464.5 580.598 470.5C576.931 475.167 573.264 481.667 569.598 490C565.931 498.333 564.098 505.167 564.098 510.5C564.098 515.167 565.764 517.5 569.098 517.5ZM692.594 546.5C688.26 546.5 686.094 542.667 686.094 535C686.094 528.667 687.594 522.5 690.594 516.5C698.26 501.833 705.26 487.333 711.594 473C715.927 464.333 719.927 456 723.594 448C727.594 440 731.26 432.667 734.594 426C736.594 424 738.594 423 740.594 423C744.927 423 746.26 425 744.594 429C743.927 431.333 742.927 434.167 741.594 437.5C740.594 440.5 739.26 444.167 737.594 448.5C732.26 462.5 729.094 472.333 728.094 478C737.427 469.667 746.927 462 756.594 455C766.594 447.667 775.927 441.667 784.594 437C793.26 432.333 800.594 430 806.594 430C811.927 430 814.594 432.167 814.594 436.5C814.594 440.167 812.927 444.167 809.594 448.5C806.26 452.5 802.927 454.5 799.594 454.5C797.927 454.5 796.594 454 795.594 453C794.594 452.667 792.594 452.5 789.594 452.5C778.927 452.5 767.76 457.667 756.094 468C743.76 478.333 732.594 490.833 722.594 505.5C712.594 519.833 705.26 532.333 700.594 543C698.26 545.333 695.594 546.5 692.594 546.5ZM791.227 546.5C786.893 546.5 784.727 542.667 784.727 535C784.727 528.667 786.227 522.5 789.227 516.5C796.893 501.833 803.893 487.333 810.227 473C814.56 464.333 818.56 456 822.227 448C826.227 440 829.893 432.667 833.227 426C835.227 424 837.227 423 839.227 423C843.56 423 844.893 425 843.227 429C842.56 431.333 841.56 434.167 840.227 437.5C839.227 440.5 837.893 444.167 836.227 448.5C830.893 462.5 827.727 472.333 826.727 478C836.06 469.667 845.56 462 855.227 455C865.227 447.667 874.56 441.667 883.227 437C891.893 432.333 899.227 430 905.227 430C910.56 430 913.227 432.167 913.227 436.5C913.227 440.167 911.56 444.167 908.227 448.5C904.893 452.5 901.56 454.5 898.227 454.5C896.56 454.5 895.227 454 894.227 453C893.227 452.667 891.227 452.5 888.227 452.5C877.56 452.5 866.393 457.667 854.727 468C842.393 478.333 831.227 490.833 821.227 505.5C811.227 519.833 803.893 532.333 799.227 543C796.893 545.333 794.227 546.5 791.227 546.5ZM892.859 638.5C885.526 638.5 879.526 635.167 874.859 628.5C870.193 621.833 867.859 614 867.859 605C867.859 600 868.693 595.5 870.359 591.5C873.026 585.833 875.193 583 876.859 583C878.193 583 878.859 584 878.859 586C878.859 587.667 878.359 589.833 877.359 592.5C877.026 593.5 876.859 594.333 876.859 595C876.526 596 876.359 596.833 876.359 597.5C876.359 603.5 878.026 609.667 881.359 616C885.026 622.333 889.526 625.5 894.859 625.5L898.859 624.5C906.859 622.5 914.359 618 921.359 611C928.693 604.333 935.859 596 942.859 586C952.193 572.333 960.526 557.5 967.859 541.5C975.193 525.833 981.526 510.167 986.859 494.5C992.193 478.833 996.193 464.667 998.859 452C998.859 450.333 998.193 449.5 996.859 449.5C994.526 449.5 990.859 452.167 985.859 457.5C981.859 461.833 976.693 467.833 970.359 475.5C964.026 483.167 956.193 492.333 946.859 503L938.859 512.5C933.526 518.833 928.026 523.5 922.359 526.5C917.026 529.167 912.026 530.5 907.359 530.5C903.359 530.5 900.026 529.667 897.359 528C894.026 525.667 892.359 521.5 892.359 515.5C892.359 505.833 896.859 489.833 905.859 467.5L912.359 451.5C915.693 443.833 918.526 436.833 920.859 430.5C923.526 424.167 926.026 418.333 928.359 413C930.693 408.667 933.359 406.5 936.359 406.5C940.026 406.5 940.693 408.667 938.359 413C926.359 440.333 919.359 461.833 917.359 477.5C917.026 478.167 916.859 479.167 916.859 480.5C916.859 481.5 916.859 482.667 916.859 484C916.859 491.333 919.859 495 925.859 495C929.859 495 935.526 492.667 942.859 488C950.193 482.667 959.359 474.333 970.359 463C981.359 451.333 994.526 436.667 1009.86 419C1012.53 416.333 1015.03 413.667 1017.36 411C1019.69 408.333 1021.86 405.833 1023.86 403.5C1025.19 402.167 1026.36 401.5 1027.36 401.5C1028.36 401.5 1028.86 403 1028.86 406C1028.86 409 1028.36 412.833 1027.36 417.5C1026.36 421.833 1025.86 424.5 1025.86 425.5C1021.86 449.833 1014.53 476 1003.86 504C992.859 531.667 978.859 557.333 961.859 581C945.193 604.667 926.526 622.5 905.859 634.5C901.526 637.167 897.193 638.5 892.859 638.5ZM1102.6 552.5C1100.26 552.5 1099.1 550.5 1099.1 546.5C1099.1 543.167 1099.76 539.167 1101.1 534.5C1102.76 529.833 1104.6 525.5 1106.6 521.5C1109.6 515.833 1114.1 505.833 1120.1 491.5C1127.1 475.833 1132.93 463.333 1137.6 454C1142.26 444.333 1146.76 437 1151.1 432C1155.76 426.333 1159.43 423.5 1162.1 423.5C1163.76 423.5 1165.1 424.667 1166.1 427C1167.1 429 1167.6 431.333 1167.6 434C1167.6 436.667 1167.26 438.333 1166.6 439C1163.93 441.667 1160.43 446.167 1156.1 452.5C1151.76 458.833 1147.76 465.167 1144.1 471.5C1137.1 484.5 1133.6 494.167 1133.6 500.5C1133.6 501.167 1133.6 501.833 1133.6 502.5C1133.93 503.167 1134.26 503.833 1134.6 504.5C1138.6 502.5 1142.26 500.5 1145.6 498.5C1148.93 496.5 1152.76 493.667 1157.1 490L1187.6 462C1190.93 459 1193.93 456.5 1196.6 454.5C1199.26 452.5 1201.43 450.833 1203.1 449.5C1206.43 447.167 1209.6 446 1212.6 446C1215.26 446 1218.43 447.667 1222.1 451C1223.76 452.667 1224.6 457.167 1224.6 464.5V477C1224.6 478.333 1224.43 479.667 1224.1 481C1224.1 482 1224.1 483.167 1224.1 484.5C1224.1 488.833 1224.6 492.667 1225.6 496C1226.93 499 1228.76 500.5 1231.1 500.5C1232.1 500.5 1233.43 499.667 1235.1 498L1249.1 481.5C1260.76 467.833 1269.76 457.833 1276.1 451.5C1282.43 445.167 1289.6 440.833 1297.6 438.5C1298.6 438.167 1299.43 438 1300.1 438C1301.1 437.667 1301.93 437.5 1302.6 437.5C1305.6 437.5 1308.1 438.5 1310.1 440.5C1312.43 442.5 1313.1 445.167 1312.1 448.5C1310.76 453.833 1308.93 460 1306.6 467C1304.6 473.667 1302.76 479 1301.1 483C1297.1 491 1295.1 497.333 1295.1 502C1295.1 505 1296.26 507 1298.6 508C1301.26 509 1303.76 509.667 1306.1 510C1308.76 510.333 1310.1 511 1310.1 512C1316.76 509.667 1321.76 508.5 1325.1 508.5C1328.43 508.5 1329.26 509.667 1327.6 512C1325.93 514 1322.93 516.5 1318.6 519.5C1314.26 522.5 1309.43 525.167 1304.1 527.5C1299.1 529.5 1294.6 530.5 1290.6 530.5C1282.26 530.5 1278.1 526 1278.1 517C1278.1 512.333 1278.76 508 1280.1 504C1284.76 487 1287.1 476 1287.1 471C1287.1 466 1285.76 463.5 1283.1 463.5C1277.1 463.5 1264.26 475.5 1244.6 499.5C1242.6 501.833 1240.26 504.333 1237.6 507C1235.26 509.667 1232.6 512.333 1229.6 515C1225.6 518.667 1221.76 522.5 1218.1 526.5C1216.1 528.5 1213.43 529.5 1210.1 529.5C1203.1 529.5 1199.26 527 1198.6 522C1198.26 516.667 1197.93 512.333 1197.6 509C1197.6 505.333 1197.6 502.833 1197.6 501.5C1196.93 492.833 1196.43 487 1196.1 484C1195.76 481 1194.26 479.5 1191.6 479.5C1188.26 479.5 1179.93 484.833 1166.6 495.5C1148.6 509.833 1132.1 525.833 1117.1 543.5C1110.76 549.5 1105.93 552.5 1102.6 552.5ZM1358.79 541.5C1351.79 541.5 1345.62 539.667 1340.29 536C1331.62 529.333 1327.29 519.333 1327.29 506C1327.29 492.667 1331.96 478.5 1341.29 463.5C1350.62 448.5 1364.79 434.667 1383.79 422C1387.12 419.667 1391.62 418.5 1397.29 418.5C1404.62 418.5 1411.12 420.5 1416.79 424.5C1422.79 428.5 1425.12 433.667 1423.79 440C1421.46 450.333 1416.29 459.5 1408.29 467.5C1400.62 475.5 1391.46 482.667 1380.79 489C1370.46 495 1359.79 500.833 1348.79 506.5C1348.46 507.5 1348.12 508.5 1347.79 509.5C1347.79 510.5 1347.79 511.5 1347.79 512.5C1347.79 517.167 1349.29 521.333 1352.29 525C1355.62 528.333 1360.12 530 1365.79 530C1370.12 530 1373.79 529.333 1376.79 528C1382.12 526 1386.46 524.167 1389.79 522.5C1393.46 520.833 1397.62 518.333 1402.29 515C1406.96 511.667 1413.29 506.667 1421.29 500C1424.96 497.333 1427.12 496 1427.79 496C1429.79 496 1430.46 497.5 1429.79 500.5C1426.46 505.833 1420.62 511.667 1412.29 518C1404.29 524.333 1395.29 529.833 1385.29 534.5C1375.62 539.167 1366.79 541.5 1358.79 541.5ZM1351.79 493C1354.46 493 1359.96 490.333 1368.29 485C1376.62 479.667 1384.46 473.833 1391.79 467.5C1404.46 455.833 1410.79 446.833 1410.79 440.5C1410.79 438.833 1410.29 437.333 1409.29 436C1408.29 434.333 1406.79 433.5 1404.79 433.5C1398.46 433.5 1387.79 441 1372.79 456C1362.46 466 1355.46 478.333 1351.79 493Z" fill="black"/>
<g clip-path="url(#clip0_772_47)">
<path d="M1442.48 469.477L1417.74 482.662L1425.73 455.794C1429.34 443.661 1427.75 430.975 1421.25 420.074C1414.72 409.126 1404.26 401.66 1391.79 399.053C1310.98 382.152 1241.19 367.556 1207.01 303.443C1192.04 275.351 1187.05 244.838 1192.97 217.524C1199.29 188.359 1217.91 164.229 1245.4 149.577C1281.37 130.403 1323.58 134.25 1355.03 155.937C1354.55 117.739 1374.89 80.5553 1410.86 61.381C1438.35 46.7287 1468.77 44.7241 1496.5 55.7382C1522.48 66.0523 1545.03 87.202 1560 115.291C1635.3 256.554 1515.34 430.639 1442.48 469.477ZM1256.42 170.26C1213.4 193.195 1201.58 243.429 1227.7 292.419C1255.31 344.229 1309.87 357.974 1396.59 376.111C1415.27 380.019 1431.59 391.667 1441.38 408.068C1446.48 416.628 1449.59 426.137 1450.63 435.871C1478.2 413.87 1511.77 373.678 1535.22 321.631C1553.73 280.543 1578.88 200.532 1539.32 126.316C1513.2 77.3259 1464.91 59.1287 1421.89 82.0638C1381.97 103.34 1366.81 153.124 1388.08 193.039L1367.4 204.064C1346.12 164.148 1296.34 148.984 1256.42 170.26Z" fill="black"/>
</g>
<defs>
<clipPath id="clip0_772_47">
<rect width="400" height="400" fill="white" transform="translate(1145.76 188.524) rotate(-28.059)"/>
</clipPath>
</defs>
</svg>
