<svg width="1697" height="663" viewBox="0 0 1697 663" fill="none" xmlns="http://www.w3.org/2000/svg">
<path d="M495 576.5C485 576.5 476.833 571.667 470.5 562C464.5 552.667 462.167 541.5 463.5 528.5C465.167 512.5 469 493.667 475 472C481.333 450 489 427 498 403C507.333 378.667 517.167 355.167 527.5 332.5C523.167 338.5 517.833 345.833 511.5 354.5C505.5 362.833 498.667 372.5 491 383.5L482 396.5C474.333 407.5 467.333 417.333 461 426C454.667 434.667 449 442.333 444 449C443.333 449.667 441.833 451.5 439.5 454.5C437.5 457.167 434.667 460.833 431 465.5C427.333 470.167 423.333 475 419 480C415 484.667 410.833 489.333 406.5 494C386.5 516.333 373 527.5 366 527.5C356 527.833 348.5 523.333 343.5 514C338.5 504.667 336 491.833 336 475.5C336 468.833 336.5 461.5 337.5 453.5C340.167 428.167 347.167 395.333 358.5 355L370 314C371.667 308.333 372.833 303.167 373.5 298.5C374.167 293.833 374.667 289.5 375 285.5C375 281.167 376.333 278.167 379 276.5C382 274.5 385.667 273.5 390 273.5C394.667 273.5 398.833 274.5 402.5 276.5C406.5 278.5 408.333 280.667 408 283C407 289.333 405.667 295.833 404 302.5C402.333 309.167 400.333 316.167 398 323.5C397.333 326.167 396 329.667 394 334C392.333 338.333 390.167 343.333 387.5 349L381.5 362.5C374.167 378.833 368.333 394.167 364 408.5C359.667 422.833 356.667 437.5 355 452.5C354.667 453.833 354.5 455.667 354.5 458C354.5 460 354.5 462.333 354.5 465C354.5 475 356.167 482.167 359.5 486.5C363.167 490.5 368.833 492.667 376.5 493C379.833 493 384.167 491.167 389.5 487.5C395.167 483.833 401 479.333 407 474C413 468.667 418.667 463.167 424 457.5C429.667 451.5 434.167 446.333 437.5 442C457.5 416.667 475.833 392.167 492.5 368.5C509.5 344.5 523.833 322.167 535.5 301.5C547.5 280.833 555.833 262.833 560.5 247.5C562.167 242.5 566.167 240 572.5 240C577.5 240 582 241.667 586 245C590 248.333 591 252 589 256L580.5 272.5C571.5 290.167 562.833 307 554.5 323C546.5 338.667 539.333 353.833 533 368.5L532.5 368C518.833 399.333 508 428.167 500 454.5C492.333 480.5 487.333 504.167 485 525.5C484.333 535.167 485.5 543.667 488.5 551C491.833 558.333 496.667 562 503 562C511.333 562 520.167 556 529.5 544C532.833 539.667 535.833 538 538.5 539C539.5 540 540 540.833 540 541.5C540 543.167 539.333 544.667 538 546C531 556.333 523.667 564 516 569C508.667 574 501.667 576.5 495 576.5ZM83.5 604.5C61.5 604.5 44 597.333 31 583C18 569 11.5 549.333 11.5 524C11.5 489 24.1667 448.667 49.5 403C66.8333 371.667 86 348.5 107 333.5C128.333 318.167 148.667 310.5 168 310.5C185 310.5 199 315.667 210 326C221.333 336.333 227 349.5 227 365.5C227 377.5 223.5 390 216.5 403C209.833 416 199.5 429 185.5 442C183.833 443.667 182.167 444.5 180.5 444.5C178.833 444.5 178 443.5 178 441.5C178 439.5 179.333 437.167 182 434.5C192 424.167 199.5 413.833 204.5 403.5C209.5 392.833 212 382.833 212 373.5C212 360.167 207.667 349.333 199 341C190.333 332.333 179.333 328 166 328C150 328 133.167 334.667 115.5 348C98.1667 361 81.8333 381.333 66.5 409C41.8333 454.667 29.5 493.5 29.5 525.5C29.5 545.833 34.3333 561.667 44 573C54 584.333 67.6667 590 85 590C100.667 590 118.167 585.333 137.5 576C156.833 566.667 177.333 552.5 199 533.5C229 506.833 256.5 475.333 281.5 439C294.167 420.667 303.833 406.667 310.5 397C317.167 387.333 320.833 382 321.5 381C326.833 373.667 332.5 365.833 338.5 357.5C344.5 348.833 350.833 339.5 357.5 329.5C358.5 327.833 359.5 328 360.5 330C362.167 332.667 362.333 334.833 361 336.5C353.333 347.833 344.667 361.5 335 377.5C325.667 393.167 315 410.833 303 430.5L294 445H294.5C267.833 486.333 238 520.833 205 548.5C183 567.167 161.5 581.167 140.5 590.5C119.833 599.833 100.833 604.5 83.5 604.5ZM625.598 559.5C624.931 559.5 624.264 559.333 623.598 559C622.931 559 622.264 558.833 621.598 558.5C616.931 556.167 613.931 552.833 612.598 548.5C611.264 544.167 610.931 538.667 611.598 532C612.264 529.333 612.931 524.667 613.598 518C614.598 511.333 615.764 506 617.098 502L591.598 526.5L577.598 540C567.931 549.667 559.931 554.5 553.598 554.5C550.931 554.5 548.764 553.5 547.098 551.5C544.098 547.833 542.598 543.333 542.598 538C542.598 531 544.431 523.5 548.098 515.5C551.764 507.5 556.098 499.833 561.098 492.5C566.098 484.833 570.598 478.5 574.598 473.5C584.598 461.167 594.264 451.5 603.598 444.5C613.264 437.5 623.264 434 633.598 434C639.264 434 644.764 435 650.098 437C655.764 439 660.931 442.333 665.598 447L666.098 447.5C666.098 448.5 665.264 449.5 663.598 450.5C662.931 451.167 662.264 451.667 661.598 452C661.264 452.333 660.931 452.667 660.598 453C656.598 457 652.098 463.667 647.098 473C642.098 482.333 637.764 492.167 634.098 502.5C630.431 512.5 628.598 521.167 628.598 528.5C628.598 535.167 630.264 539.667 633.598 542C635.264 543 637.098 543.5 639.098 543.5C643.431 543.5 649.431 540.833 657.098 535.5C657.431 535.167 658.098 534.667 659.098 534C660.431 533 662.264 531.667 664.598 530C667.264 528 669.431 527 671.098 527C672.764 527 673.598 527.667 673.598 529C673.598 531 672.264 533.333 669.598 536C667.598 537.667 665.264 539.5 662.598 541.5C660.264 543.5 657.431 545.5 654.098 547.5C649.098 551.167 643.931 554 638.598 556C633.264 558.333 628.931 559.5 625.598 559.5ZM569.098 527.5C576.098 527.5 589.098 517.167 608.098 496.5C613.098 490.833 617.598 485.5 621.598 480.5C625.598 475.167 629.264 470 632.598 465C638.598 455.333 640.598 448.667 638.598 445C637.598 443 635.598 442 632.598 442C628.931 442 623.931 444 617.598 448C611.264 451.667 604.764 456.5 598.098 462.5C591.764 468.5 585.931 474.5 580.598 480.5C576.931 485.167 573.264 491.667 569.598 500C565.931 508.333 564.098 515.167 564.098 520.5C564.098 525.167 565.764 527.5 569.098 527.5ZM692.594 556.5C688.26 556.5 686.094 552.667 686.094 545C686.094 538.667 687.594 532.5 690.594 526.5C698.26 511.833 705.26 497.333 711.594 483C715.927 474.333 719.927 466 723.594 458C727.594 450 731.26 442.667 734.594 436C736.594 434 738.594 433 740.594 433C744.927 433 746.26 435 744.594 439C743.927 441.333 742.927 444.167 741.594 447.5C740.594 450.5 739.26 454.167 737.594 458.5C732.26 472.5 729.094 482.333 728.094 488C737.427 479.667 746.927 472 756.594 465C766.594 457.667 775.927 451.667 784.594 447C793.26 442.333 800.594 440 806.594 440C811.927 440 814.594 442.167 814.594 446.5C814.594 450.167 812.927 454.167 809.594 458.5C806.26 462.5 802.927 464.5 799.594 464.5C797.927 464.5 796.594 464 795.594 463C794.594 462.667 792.594 462.5 789.594 462.5C778.927 462.5 767.76 467.667 756.094 478C743.76 488.333 732.594 500.833 722.594 515.5C712.594 529.833 705.26 542.333 700.594 553C698.26 555.333 695.594 556.5 692.594 556.5ZM791.227 556.5C786.893 556.5 784.727 552.667 784.727 545C784.727 538.667 786.227 532.5 789.227 526.5C796.893 511.833 803.893 497.333 810.227 483C814.56 474.333 818.56 466 822.227 458C826.227 450 829.893 442.667 833.227 436C835.227 434 837.227 433 839.227 433C843.56 433 844.893 435 843.227 439C842.56 441.333 841.56 444.167 840.227 447.5C839.227 450.5 837.893 454.167 836.227 458.5C830.893 472.5 827.727 482.333 826.727 488C836.06 479.667 845.56 472 855.227 465C865.227 457.667 874.56 451.667 883.227 447C891.893 442.333 899.227 440 905.227 440C910.56 440 913.227 442.167 913.227 446.5C913.227 450.167 911.56 454.167 908.227 458.5C904.893 462.5 901.56 464.5 898.227 464.5C896.56 464.5 895.227 464 894.227 463C893.227 462.667 891.227 462.5 888.227 462.5C877.56 462.5 866.393 467.667 854.727 478C842.393 488.333 831.227 500.833 821.227 515.5C811.227 529.833 803.893 542.333 799.227 553C796.893 555.333 794.227 556.5 791.227 556.5ZM892.859 648.5C885.526 648.5 879.526 645.167 874.859 638.5C870.193 631.833 867.859 624 867.859 615C867.859 610 868.693 605.5 870.359 601.5C873.026 595.833 875.193 593 876.859 593C878.193 593 878.859 594 878.859 596C878.859 597.667 878.359 599.833 877.359 602.5C877.026 603.5 876.859 604.333 876.859 605C876.526 606 876.359 606.833 876.359 607.5C876.359 613.5 878.026 619.667 881.359 626C885.026 632.333 889.526 635.5 894.859 635.5L898.859 634.5C906.859 632.5 914.359 628 921.359 621C928.693 614.333 935.859 606 942.859 596C952.193 582.333 960.526 567.5 967.859 551.5C975.193 535.833 981.526 520.167 986.859 504.5C992.193 488.833 996.193 474.667 998.859 462C998.859 460.333 998.193 459.5 996.859 459.5C994.526 459.5 990.859 462.167 985.859 467.5C981.859 471.833 976.693 477.833 970.359 485.5C964.026 493.167 956.193 502.333 946.859 513L938.859 522.5C933.526 528.833 928.026 533.5 922.359 536.5C917.026 539.167 912.026 540.5 907.359 540.5C903.359 540.5 900.026 539.667 897.359 538C894.026 535.667 892.359 531.5 892.359 525.5C892.359 515.833 896.859 499.833 905.859 477.5L912.359 461.5C915.693 453.833 918.526 446.833 920.859 440.5C923.526 434.167 926.026 428.333 928.359 423C930.693 418.667 933.359 416.5 936.359 416.5C940.026 416.5 940.693 418.667 938.359 423C926.359 450.333 919.359 471.833 917.359 487.5C917.026 488.167 916.859 489.167 916.859 490.5C916.859 491.5 916.859 492.667 916.859 494C916.859 501.333 919.859 505 925.859 505C929.859 505 935.526 502.667 942.859 498C950.193 492.667 959.359 484.333 970.359 473C981.359 461.333 994.526 446.667 1009.86 429C1012.53 426.333 1015.03 423.667 1017.36 421C1019.69 418.333 1021.86 415.833 1023.86 413.5C1025.19 412.167 1026.36 411.5 1027.36 411.5C1028.36 411.5 1028.86 413 1028.86 416C1028.86 419 1028.36 422.833 1027.36 427.5C1026.36 431.833 1025.86 434.5 1025.86 435.5C1021.86 459.833 1014.53 486 1003.86 514C992.859 541.667 978.859 567.333 961.859 591C945.193 614.667 926.526 632.5 905.859 644.5C901.526 647.167 897.193 648.5 892.859 648.5ZM1102.6 562.5C1100.26 562.5 1099.1 560.5 1099.1 556.5C1099.1 553.167 1099.76 549.167 1101.1 544.5C1102.76 539.833 1104.6 535.5 1106.6 531.5C1109.6 525.833 1114.1 515.833 1120.1 501.5C1127.1 485.833 1132.93 473.333 1137.6 464C1142.26 454.333 1146.76 447 1151.1 442C1155.76 436.333 1159.43 433.5 1162.1 433.5C1163.76 433.5 1165.1 434.667 1166.1 437C1167.1 439 1167.6 441.333 1167.6 444C1167.6 446.667 1167.26 448.333 1166.6 449C1163.93 451.667 1160.43 456.167 1156.1 462.5C1151.76 468.833 1147.76 475.167 1144.1 481.5C1137.1 494.5 1133.6 504.167 1133.6 510.5C1133.6 511.167 1133.6 511.833 1133.6 512.5C1133.93 513.167 1134.26 513.833 1134.6 514.5C1138.6 512.5 1142.26 510.5 1145.6 508.5C1148.93 506.5 1152.76 503.667 1157.1 500L1187.6 472C1190.93 469 1193.93 466.5 1196.6 464.5C1199.26 462.5 1201.43 460.833 1203.1 459.5C1206.43 457.167 1209.6 456 1212.6 456C1215.26 456 1218.43 457.667 1222.1 461C1223.76 462.667 1224.6 467.167 1224.6 474.5V487C1224.6 488.333 1224.43 489.667 1224.1 491C1224.1 492 1224.1 493.167 1224.1 494.5C1224.1 498.833 1224.6 502.667 1225.6 506C1226.93 509 1228.76 510.5 1231.1 510.5C1232.1 510.5 1233.43 509.667 1235.1 508L1249.1 491.5C1260.76 477.833 1269.76 467.833 1276.1 461.5C1282.43 455.167 1289.6 450.833 1297.6 448.5C1298.6 448.167 1299.43 448 1300.1 448C1301.1 447.667 1301.93 447.5 1302.6 447.5C1305.6 447.5 1308.1 448.5 1310.1 450.5C1312.43 452.5 1313.1 455.167 1312.1 458.5C1310.76 463.833 1308.93 470 1306.6 477C1304.6 483.667 1302.76 489 1301.1 493C1297.1 501 1295.1 507.333 1295.1 512C1295.1 515 1296.26 517 1298.6 518C1301.26 519 1303.76 519.667 1306.1 520C1308.76 520.333 1310.1 521 1310.1 522C1316.76 519.667 1321.76 518.5 1325.1 518.5C1328.43 518.5 1329.26 519.667 1327.6 522C1325.93 524 1322.93 526.5 1318.6 529.5C1314.26 532.5 1309.43 535.167 1304.1 537.5C1299.1 539.5 1294.6 540.5 1290.6 540.5C1282.26 540.5 1278.1 536 1278.1 527C1278.1 522.333 1278.76 518 1280.1 514C1284.76 497 1287.1 486 1287.1 481C1287.1 476 1285.76 473.5 1283.1 473.5C1277.1 473.5 1264.26 485.5 1244.6 509.5C1242.6 511.833 1240.26 514.333 1237.6 517C1235.26 519.667 1232.6 522.333 1229.6 525C1225.6 528.667 1221.76 532.5 1218.1 536.5C1216.1 538.5 1213.43 539.5 1210.1 539.5C1203.1 539.5 1199.26 537 1198.6 532C1198.26 526.667 1197.93 522.333 1197.6 519C1197.6 515.333 1197.6 512.833 1197.6 511.5C1196.93 502.833 1196.43 497 1196.1 494C1195.76 491 1194.26 489.5 1191.6 489.5C1188.26 489.5 1179.93 494.833 1166.6 505.5C1148.6 519.833 1132.1 535.833 1117.1 553.5C1110.76 559.5 1105.93 562.5 1102.6 562.5ZM1358.79 551.5C1351.79 551.5 1345.62 549.667 1340.29 546C1331.62 539.333 1327.29 529.333 1327.29 516C1327.29 502.667 1331.96 488.5 1341.29 473.5C1350.62 458.5 1364.79 444.667 1383.79 432C1387.12 429.667 1391.62 428.5 1397.29 428.5C1404.62 428.5 1411.12 430.5 1416.79 434.5C1422.79 438.5 1425.12 443.667 1423.79 450C1421.46 460.333 1416.29 469.5 1408.29 477.5C1400.62 485.5 1391.46 492.667 1380.79 499C1370.46 505 1359.79 510.833 1348.79 516.5C1348.46 517.5 1348.12 518.5 1347.79 519.5C1347.79 520.5 1347.79 521.5 1347.79 522.5C1347.79 527.167 1349.29 531.333 1352.29 535C1355.62 538.333 1360.12 540 1365.79 540C1370.12 540 1373.79 539.333 1376.79 538C1382.12 536 1386.46 534.167 1389.79 532.5C1393.46 530.833 1397.62 528.333 1402.29 525C1406.96 521.667 1413.29 516.667 1421.29 510C1424.96 507.333 1427.12 506 1427.79 506C1429.79 506 1430.46 507.5 1429.79 510.5C1426.46 515.833 1420.62 521.667 1412.29 528C1404.29 534.333 1395.29 539.833 1385.29 544.5C1375.62 549.167 1366.79 551.5 1358.79 551.5ZM1351.79 503C1354.46 503 1359.96 500.333 1368.29 495C1376.62 489.667 1384.46 483.833 1391.79 477.5C1404.46 465.833 1410.79 456.833 1410.79 450.5C1410.79 448.833 1410.29 447.333 1409.29 446C1408.29 444.333 1406.79 443.5 1404.79 443.5C1398.46 443.5 1387.79 451 1372.79 466C1362.46 476 1355.46 488.333 1351.79 503Z" fill="white"/>
<path d="M1450.81 481.599L1426.06 494.759L1433.46 466.725C1436.8 454.065 1434.84 440.675 1427.96 429.021C1421.04 417.316 1410.23 409.162 1397.51 406.062C1315.06 385.963 1243.85 368.604 1207.47 300.179C1191.53 270.198 1185.66 237.956 1190.94 209.394C1196.58 178.895 1214.83 154.046 1242.33 139.423C1278.32 120.286 1321.25 125.544 1353.74 149.261C1352.24 109.066 1371.89 70.5346 1407.88 51.3974C1435.39 36.7734 1466.19 35.5381 1494.63 47.9208C1521.26 59.5166 1544.71 82.4125 1560.65 112.391C1640.81 263.153 1523.71 442.836 1450.81 481.599ZM1254.07 161.497C1211.01 184.388 1200.36 236.892 1228.16 289.176C1257.56 344.471 1313.28 360.496 1401.77 382.066C1420.83 386.713 1437.7 399.435 1448.06 416.969C1453.47 426.12 1456.88 436.213 1458.19 446.482C1485.58 424.129 1518.58 382.814 1540.99 328.737C1558.68 286.046 1582.07 202.601 1539.95 123.394C1512.15 71.1095 1462.67 50.5803 1419.62 73.4711C1379.68 94.7063 1365.62 146.64 1388.27 189.24L1367.57 200.244C1344.92 157.644 1294 140.262 1254.07 161.497Z" fill="white"/>
<mask id="mask0_772_48" style="mask-type:alpha" maskUnits="userSpaceOnUse" x="1196" y="38" width="399" height="456">
<path d="M1457.81 480.599L1433.06 493.759L1440.46 465.725C1443.8 453.065 1441.84 439.675 1434.96 428.021C1428.04 416.316 1417.23 408.162 1404.51 405.062C1322.06 384.963 1250.85 367.604 1214.47 299.179C1198.53 269.198 1192.66 236.956 1197.94 208.394C1203.58 177.895 1221.83 153.046 1249.33 138.423C1285.32 119.286 1328.25 124.544 1360.74 148.261C1359.24 108.066 1378.89 69.5346 1414.88 50.3974C1442.39 35.7734 1473.19 34.5381 1501.63 46.9208C1528.26 58.5166 1551.71 81.4125 1567.65 111.391C1647.81 262.153 1530.71 441.836 1457.81 480.599ZM1261.07 160.497C1218.01 183.388 1207.36 235.892 1235.16 288.176C1264.56 343.471 1320.28 359.496 1408.77 381.066C1427.83 385.713 1444.7 398.435 1455.06 415.969C1460.47 425.12 1463.88 435.213 1465.19 445.482C1492.58 423.129 1525.58 381.814 1547.99 327.737C1565.68 285.046 1589.07 201.601 1546.95 122.394C1519.15 70.1095 1469.67 49.5803 1426.62 72.4711C1386.68 93.7063 1372.62 145.64 1395.27 188.24L1374.57 199.244C1351.92 156.644 1301 139.262 1261.07 160.497Z" fill="black"/>
</mask>
<g mask="url(#mask0_772_48)">
</g>
</svg>
