<svg width="651" height="651" viewBox="0 0 651 651" fill="none" xmlns="http://www.w3.org/2000/svg">
<path d="M408.333 142.667C432.907 147.461 457.297 158.297 475 176C492.703 193.703 503.54 218.095 508.333 242.667M425 26C476.05 31.6713 521.99 56.369 558.333 92.6667C594.677 128.964 619.263 174.956 625 226M624.983 475.223V565.547C625.123 600.077 594.077 628.91 559.217 625.763C258.337 626 25.002 390.5 25.2377 91.6397C22.098 56.965 50.788 26.0353 85.2724 26.003H175.777C190.418 25.859 204.612 31.0333 215.713 40.5613C247.273 67.6497 267.573 159.592 259.763 196.143C253.665 224.679 224.899 244.643 205.342 264.16C248.288 339.54 310.823 401.95 386.35 444.813C405.907 425.293 425.913 396.587 454.503 390.5C491.183 382.693 583.717 403.02 610.697 434.8C620.267 446.07 625.35 460.457 624.983 475.223Z" stroke="white" stroke-width="50" stroke-linecap="round" stroke-linejoin="round"/>
</svg>
